<svg width="20" height="20" viewBox="0 0 20 20" fill="none" xmlns="http://www.w3.org/2000/svg">
<g clip-path="url(#clip0_53_230)">
<path d="M9.99998 0.507813C4.48592 0.507813 0 4.99374 0 10.5078C0 14.2297 2.05169 17.6224 5.3543 19.3619C5.64071 19.5126 5.99501 19.4028 6.14592 19.1165C6.29668 18.8301 6.18682 18.4758 5.90041 18.325C2.9837 16.7888 1.17187 13.7935 1.17187 10.5078C1.17187 5.63995 5.13213 1.67969 9.99998 1.67969C14.8678 1.67969 18.8281 5.63995 18.8281 10.5078C18.8281 13.847 16.9732 16.8646 13.9874 18.383C13.699 18.5297 13.5841 18.8824 13.7307 19.1708C13.8342 19.3742 14.04 19.4913 14.2535 19.4913C14.3429 19.4913 14.4336 19.4708 14.5187 19.4275C16.1401 18.6031 17.5091 17.3512 18.4774 15.8075C19.4735 14.2194 20 12.3869 20 10.5078C20 4.99374 15.514 0.507813 9.99998 0.507813Z" fill="white"/>
<path d="M15.8806 14.2055C16.579 13.0984 16.9481 11.8198 16.9481 10.5078C16.9481 6.67664 13.8312 3.55957 9.99999 3.55957C6.16866 3.55957 3.05176 6.67664 3.05176 10.5078C3.05176 11.8198 3.42087 13.0983 4.11926 14.2055C4.79828 15.2815 5.75698 16.1516 6.89193 16.7215C7.18124 16.8666 7.53341 16.7499 7.67852 16.4607C7.82363 16.1714 7.70705 15.8192 7.41775 15.6741C5.44754 14.6849 4.22363 12.7054 4.22363 10.5078C4.22363 7.32269 6.81487 4.73145 9.99999 4.73145C13.1849 4.73145 15.7762 7.32269 15.7762 10.5078C15.7762 12.7054 14.5523 14.6851 12.5821 15.6741C12.2928 15.8194 12.176 16.1714 12.3213 16.4607C12.4241 16.6655 12.6307 16.7839 12.8454 16.7839C12.9338 16.7839 13.0235 16.7638 13.1079 16.7215C14.2428 16.1516 15.2017 15.2817 15.8806 14.2055Z" fill="white"/>
<path d="M13.8962 10.5079C13.8962 8.35947 12.1483 6.61157 9.99984 6.61157C7.85141 6.61157 6.10352 8.35947 6.10352 10.5079C6.10352 11.9904 6.92871 13.3257 8.25698 13.9924C8.34121 14.0347 8.43093 14.0548 8.51928 14.0548C8.73397 14.0548 8.94058 13.9364 9.04342 13.7316C9.18853 13.4423 9.0718 13.0903 8.78265 12.945C7.85293 12.4784 7.27539 11.5446 7.27539 10.5079C7.27539 9.00568 8.49761 7.78345 9.99984 7.78345C11.5021 7.78345 12.7243 9.00568 12.7243 10.5079C12.7243 11.5444 12.1469 12.4783 11.2172 12.9449C10.928 13.0901 10.8113 13.4422 10.9564 13.7315C11.1017 14.0206 11.4538 14.1374 11.743 13.9922C13.0711 13.3254 13.8962 11.9903 13.8962 10.5079Z" fill="white"/>
</g>
<defs>
<clipPath id="clip0_53_230">
<rect width="20" height="20" fill="white"/>
</clipPath>
</defs>
</svg>
