<svg width="20" height="20" viewBox="0 0 20 20" fill="none" xmlns="http://www.w3.org/2000/svg">
<path d="M19.9415 12.2481L18.8153 6.13168C18.5487 4.68371 17.2891 3.63281 15.8202 3.63281H13.7517C13.6109 3.63281 13.4748 3.68352 13.3684 3.77559L12.1784 4.80492H7.82155L6.63155 3.77559C6.52507 3.68348 6.38902 3.63281 6.24823 3.63281H4.17976C2.71085 3.63281 1.45124 4.68371 1.18464 6.13164L0.0584294 12.2481C-0.285399 14.1152 0.922531 15.913 2.77878 16.2947C4.08054 16.5623 5.39761 16.0767 6.21609 15.0273L7.50257 13.3779H12.4975L13.7839 15.0273C14.5974 16.0704 15.9114 16.5639 17.2212 16.2947C19.0731 15.9139 20.286 14.1191 19.9415 12.2481ZM16.9852 15.147C16.1232 15.3243 15.2505 15.0023 14.708 14.3067L13.2455 12.4318C13.1345 12.2894 12.9641 12.2062 12.7835 12.2062H7.21644C7.03589 12.2062 6.86542 12.2894 6.75441 12.4318L5.29198 14.3067C4.74948 15.0023 3.87687 15.3243 3.01476 15.147C1.78484 14.8941 0.982414 13.7011 1.21089 12.4603L2.3371 6.34379C2.50132 5.45187 3.27624 4.80453 4.17972 4.80453H6.02991L7.21991 5.83387C7.3264 5.92598 7.46245 5.97664 7.60323 5.97664H12.3966C12.5374 5.97664 12.6735 5.92594 12.7799 5.83387L13.9699 4.80453H15.8201C16.7236 4.80453 17.4985 5.45187 17.6627 6.34379L18.7891 12.4602C19.0173 13.7 18.2162 14.8939 16.9852 15.147Z" fill="white"/>
<path d="M6.51523 8.50825H5.66629V7.65935C5.66629 7.33579 5.40395 7.07349 5.08035 7.07349C4.75676 7.07349 4.49441 7.33579 4.49441 7.65935V8.50825H3.64551C3.32191 8.50825 3.05957 8.77056 3.05957 9.09411C3.05957 9.41767 3.32191 9.67997 3.64551 9.67997H4.49445V10.5288C4.49445 10.8524 4.7568 11.1147 5.08039 11.1147C5.40398 11.1147 5.66633 10.8524 5.66633 10.5288V9.68001H6.51527C6.83887 9.68001 7.10121 9.41771 7.10121 9.09415C7.10117 8.77056 6.83883 8.50825 6.51523 8.50825Z" fill="white"/>
<path d="M15.1306 6.86865C13.9033 6.86865 12.9048 7.86705 12.9048 9.09428C12.9048 10.3215 13.9033 11.3199 15.1306 11.3199C16.3579 11.3199 17.3563 10.3215 17.3563 9.09428C17.3563 7.86701 16.3578 6.86865 15.1306 6.86865ZM15.1306 10.1481C14.5494 10.1481 14.0767 9.67533 14.0767 9.09424C14.0767 8.51314 14.5494 8.04037 15.1306 8.04037C15.7117 8.04037 16.1845 8.51314 16.1845 9.09424C16.1845 9.67533 15.7117 10.1481 15.1306 10.1481Z" fill="white"/>
</svg>
