<svg width="20" height="20" viewBox="0 0 20 20" fill="none" xmlns="http://www.w3.org/2000/svg">
<g clip-path="url(#clip0_53_337)">
<path d="M3.5 2.33337C2.673 2.33337 2 3.00637 2 3.83337C2 4.66037 2.673 5.33337 3.5 5.33337C4.327 5.33337 5 4.66037 5 3.83337C5 3.00637 4.327 2.33337 3.5 2.33337ZM3.5 4.66671C3.04067 4.66671 2.66667 4.29304 2.66667 3.83337C2.66667 3.37371 3.04067 3.00004 3.5 3.00004C3.95933 3.00004 4.33333 3.37371 4.33333 3.83337C4.33333 4.29304 3.95933 4.66671 3.5 4.66671Z" fill="white"/>
<path d="M16.6668 3.66667C16.8509 3.66667 17.0002 3.51743 17.0002 3.33333C17.0002 3.14924 16.8509 3 16.6668 3C16.4827 3 16.3335 3.14924 16.3335 3.33333C16.3335 3.51743 16.4827 3.66667 16.6668 3.66667Z" fill="white"/>
<path d="M15.3333 3.66667C15.5174 3.66667 15.6667 3.51743 15.6667 3.33333C15.6667 3.14924 15.5174 3 15.3333 3C15.1492 3 15 3.14924 15 3.33333C15 3.51743 15.1492 3.66667 15.3333 3.66667Z" fill="white"/>
<path d="M17.3333 4.66667C17.5174 4.66667 17.6667 4.51743 17.6667 4.33333C17.6667 4.14924 17.5174 4 17.3333 4C17.1492 4 17 4.14924 17 4.33333C17 4.51743 17.1492 4.66667 17.3333 4.66667Z" fill="white"/>
<path d="M15.9998 4.66667C16.1839 4.66667 16.3332 4.51743 16.3332 4.33333C16.3332 4.14924 16.1839 4 15.9998 4C15.8157 4 15.6665 4.14924 15.6665 4.33333C15.6665 4.51743 15.8157 4.66667 15.9998 4.66667Z" fill="white"/>
<path d="M13.9998 3.66667C14.1839 3.66667 14.3332 3.51743 14.3332 3.33333C14.3332 3.14924 14.1839 3 13.9998 3C13.8157 3 13.6665 3.14924 13.6665 3.33333C13.6665 3.51743 13.8157 3.66667 13.9998 3.66667Z" fill="white"/>
<path d="M14.6668 4.66667C14.8509 4.66667 15.0002 4.51743 15.0002 4.33333C15.0002 4.14924 14.8509 4 14.6668 4C14.4827 4 14.3335 4.14924 14.3335 4.33333C14.3335 4.51743 14.4827 4.66667 14.6668 4.66667Z" fill="white"/>
<path d="M12.6668 3.66667C12.8509 3.66667 13.0002 3.51743 13.0002 3.33333C13.0002 3.14924 12.8509 3 12.6668 3C12.4827 3 12.3335 3.14924 12.3335 3.33333C12.3335 3.51743 12.4827 3.66667 12.6668 3.66667Z" fill="white"/>
<path d="M13.3333 4.66667C13.5174 4.66667 13.6667 4.51743 13.6667 4.33333C13.6667 4.14924 13.5174 4 13.3333 4C13.1492 4 13 4.14924 13 4.33333C13 4.51743 13.1492 4.66667 13.3333 4.66667Z" fill="white"/>
<path d="M11.3333 3.66667C11.5174 3.66667 11.6667 3.51743 11.6667 3.33333C11.6667 3.14924 11.5174 3 11.3333 3C11.1492 3 11 3.14924 11 3.33333C11 3.51743 11.1492 3.66667 11.3333 3.66667Z" fill="white"/>
<path d="M11.9998 4.66667C12.1839 4.66667 12.3332 4.51743 12.3332 4.33333C12.3332 4.14924 12.1839 4 11.9998 4C11.8157 4 11.6665 4.14924 11.6665 4.33333C11.6665 4.51743 11.8157 4.66667 11.9998 4.66667Z" fill="white"/>
<path d="M20 5.79737V1.86937C20 1.02237 19.311 0.333374 18.464 0.333374H1.536C0.689 0.333374 0 1.02237 0 1.86937V5.79704C0 6.28671 0.234333 6.71871 0.592333 7.00004C0.234333 7.28137 0 7.71337 0 8.20271V12.1304C0 12.9777 0.689 13.6667 1.536 13.6667H9.66667V16.367C9.01467 16.5 8.5 17.0147 8.367 17.6667H0.333333C0.149333 17.6667 0 17.8157 0 18C0 18.1844 0.149333 18.3334 0.333333 18.3334H8.367C8.522 19.093 9.195 19.6667 10 19.6667C10.805 19.6667 11.478 19.093 11.633 18.3334H19.6667C19.8507 18.3334 20 18.1844 20 18C20 17.8157 19.8507 17.6667 19.6667 17.6667H11.633C11.5 17.0147 10.9853 16.5 10.3333 16.367V13.6667H18.464C19.311 13.6667 20 12.9777 20 12.1307V8.20271C20 7.71304 19.7657 7.28137 19.4077 7.00004C19.7657 6.71871 20 6.28671 20 5.79737ZM11 18C11 18.5514 10.5513 19 10 19C9.44867 19 9 18.5514 9 18C9 17.4487 9.44867 17 10 17C10.5513 17 11 17.4487 11 18ZM19.3333 8.20271V12.1304C19.3333 12.61 18.9433 13 18.464 13H1.536C1.05667 13 0.666667 12.61 0.666667 12.1307V8.20271C0.666667 7.72337 1.05667 7.33337 1.536 7.33337H18.4637C18.9433 7.33337 19.3333 7.72337 19.3333 8.20271ZM1.536 6.66671C1.05667 6.66671 0.666667 6.27671 0.666667 5.79737V1.86937C0.666667 1.39004 1.05667 1.00004 1.536 1.00004H18.4637C18.9433 1.00004 19.3333 1.39004 19.3333 1.86937V5.79704C19.3333 6.27671 18.9433 6.66671 18.464 6.66671H1.536Z" fill="white"/>
<path d="M3.5 11.6667C4.327 11.6667 5 10.9937 5 10.1667C5 9.33975 4.327 8.66675 3.5 8.66675C2.673 8.66675 2 9.33975 2 10.1667C2 10.9937 2.673 11.6667 3.5 11.6667ZM3.5 9.33341C3.95933 9.33341 4.33333 9.70708 4.33333 10.1667C4.33333 10.6264 3.95933 11.0001 3.5 11.0001C3.04067 11.0001 2.66667 10.6264 2.66667 10.1667C2.66667 9.70708 3.04067 9.33341 3.5 9.33341Z" fill="white"/>
<path d="M16.6668 10C16.8509 10 17.0002 9.8508 17.0002 9.66671C17.0002 9.48261 16.8509 9.33337 16.6668 9.33337C16.4827 9.33337 16.3335 9.48261 16.3335 9.66671C16.3335 9.8508 16.4827 10 16.6668 10Z" fill="white"/>
<path d="M15.3333 10C15.5174 10 15.6667 9.8508 15.6667 9.66671C15.6667 9.48261 15.5174 9.33337 15.3333 9.33337C15.1492 9.33337 15 9.48261 15 9.66671C15 9.8508 15.1492 10 15.3333 10Z" fill="white"/>
<path d="M17.3333 11C17.5174 11 17.6667 10.8508 17.6667 10.6667C17.6667 10.4826 17.5174 10.3334 17.3333 10.3334C17.1492 10.3334 17 10.4826 17 10.6667C17 10.8508 17.1492 11 17.3333 11Z" fill="white"/>
<path d="M15.9998 11C16.1839 11 16.3332 10.8508 16.3332 10.6667C16.3332 10.4826 16.1839 10.3334 15.9998 10.3334C15.8157 10.3334 15.6665 10.4826 15.6665 10.6667C15.6665 10.8508 15.8157 11 15.9998 11Z" fill="white"/>
<path d="M13.9998 10C14.1839 10 14.3332 9.8508 14.3332 9.66671C14.3332 9.48261 14.1839 9.33337 13.9998 9.33337C13.8157 9.33337 13.6665 9.48261 13.6665 9.66671C13.6665 9.8508 13.8157 10 13.9998 10Z" fill="white"/>
<path d="M14.6668 11C14.8509 11 15.0002 10.8508 15.0002 10.6667C15.0002 10.4826 14.8509 10.3334 14.6668 10.3334C14.4827 10.3334 14.3335 10.4826 14.3335 10.6667C14.3335 10.8508 14.4827 11 14.6668 11Z" fill="white"/>
<path d="M12.6668 10C12.8509 10 13.0002 9.8508 13.0002 9.66671C13.0002 9.48261 12.8509 9.33337 12.6668 9.33337C12.4827 9.33337 12.3335 9.48261 12.3335 9.66671C12.3335 9.8508 12.4827 10 12.6668 10Z" fill="white"/>
<path d="M13.3333 11C13.5174 11 13.6667 10.8508 13.6667 10.6667C13.6667 10.4826 13.5174 10.3334 13.3333 10.3334C13.1492 10.3334 13 10.4826 13 10.6667C13 10.8508 13.1492 11 13.3333 11Z" fill="white"/>
<path d="M11.3333 10C11.5174 10 11.6667 9.8508 11.6667 9.66671C11.6667 9.48261 11.5174 9.33337 11.3333 9.33337C11.1492 9.33337 11 9.48261 11 9.66671C11 9.8508 11.1492 10 11.3333 10Z" fill="white"/>
<path d="M11.9998 11C12.1839 11 12.3332 10.8508 12.3332 10.6667C12.3332 10.4826 12.1839 10.3334 11.9998 10.3334C11.8157 10.3334 11.6665 10.4826 11.6665 10.6667C11.6665 10.8508 11.8157 11 11.9998 11Z" fill="white"/>
</g>
<defs>
<clipPath id="clip0_53_337">
<rect width="20" height="20" fill="white"/>
</clipPath>
</defs>
</svg>
