<svg width="19" height="19" viewBox="0 0 19 19" fill="none" xmlns="http://www.w3.org/2000/svg">
<path d="M5.71529 14.7624C8.02477 14.7624 9.90372 12.8834 9.90372 10.5739C9.90372 8.26445 8.02477 6.3855 5.71529 6.3855C3.40581 6.3855 1.52686 8.26445 1.52686 10.5739C1.52686 12.8834 3.40581 14.7624 5.71529 14.7624ZM5.71529 7.12769C7.61555 7.12769 9.16153 8.67367 9.16153 10.5739C9.16153 12.4742 7.61555 14.0202 5.71529 14.0202C3.81503 14.0202 2.26904 12.4742 2.26904 10.5739C2.26904 8.67367 3.81503 7.12769 5.71529 7.12769Z" fill="white"/>
<path d="M18.6289 7.01309H16.5719V5.62178H17.6975C17.9025 5.62178 18.0686 5.45566 18.0686 5.25069V3.11719C18.0686 2.91222 17.9025 2.74609 17.6975 2.74609H7.08499C6.88002 2.74609 6.7139 2.91222 6.7139 3.11719V4.85857C6.7139 4.85857 5.8801 4.85857 5.71528 4.85857C2.56388 4.85857 0 7.42245 0 10.5739C0 10.9089 0.0294266 11.2452 0.08741 11.5736C0.122925 11.7754 0.315575 11.9101 0.517357 11.8744C0.719139 11.8389 0.853806 11.6464 0.818291 11.4445C0.7677 11.1588 0.742188 10.8658 0.742188 10.5739C0.742188 7.83167 2.9731 5.60076 5.71528 5.60076C6.13653 5.60076 6.55836 5.65411 6.96613 5.76022C9.1047 6.31642 10.6884 8.26365 10.6884 10.5739C10.6884 13.1861 8.66388 15.3344 6.10145 15.5322C5.97301 15.5419 5.844 15.5469 5.71528 15.5469C4.42326 15.5469 3.19894 15.0536 2.26802 14.158C2.12031 14.0159 1.88548 14.0205 1.74327 14.1681C1.60121 14.3158 1.60571 14.5508 1.75342 14.6928C2.10161 15.0278 2.48575 15.3136 2.89642 15.5469H1.43929C1.23432 15.5469 1.0682 15.7131 1.0682 15.918C1.0682 16.123 1.23432 16.2891 1.43929 16.2891H5.71209C5.7131 16.2891 5.71426 16.2893 5.71528 16.2893C5.71528 16.2893 15.3515 16.2891 15.3527 16.2891H17.9334C18.1384 16.2891 18.3045 16.123 18.3045 15.918C18.3045 15.7131 18.1384 15.5469 17.9334 15.5469H15.7206V14.1558H17.6975C17.9025 14.1558 18.0686 13.9895 18.0686 13.7847V9.88892H18.6289C18.8339 9.88892 19 9.7228 19 9.51783V7.38419C19 7.17921 18.8339 7.01309 18.6289 7.01309ZM7.45609 3.48828H17.3265V4.87959H14.3241C14.1191 4.87959 13.953 5.04572 13.953 5.25069V5.25083C13.953 5.4558 14.1191 5.62193 14.3241 5.62193H15.8298V7.01309H10.1861C9.73454 6.44688 9.18443 5.97707 8.56879 5.62193H10.9783C11.1833 5.62193 11.3494 5.4558 11.3494 5.25083C11.3494 5.23808 11.3487 5.22532 11.3474 5.21285C11.3285 5.02571 11.1704 4.87959 10.9783 4.87959H7.45609V3.48828ZM14.9784 15.5469H8.53385C9.15848 15.1918 9.71773 14.7162 10.1694 14.1556H14.9784V15.5469ZM17.3265 13.4134H10.6758C10.7882 13.2167 10.8886 13.0129 10.9771 12.8045C11.085 12.5509 11.1753 12.289 11.2453 12.0224H17.3265V13.4134ZM17.3265 11.2802H11.3874C11.444 10.8191 11.4449 10.35 11.3898 9.88878H17.3265V11.2802ZM18.2578 9.14659H11.2511C11.1259 8.65779 10.9378 8.19233 10.6889 7.75528H18.2578V9.14659Z" fill="white"/>
<path d="M3.51013 11.8468C3.57652 11.9616 3.69901 12.0324 3.83151 12.0324H4.87303L5.39372 12.9344C5.46012 13.0492 5.58261 13.12 5.7151 13.12C5.84773 13.12 5.97022 13.0492 6.03647 12.9344L6.55731 12.0324H7.59869C7.73133 12.0324 7.85382 11.9616 7.92006 11.8468C7.98645 11.732 7.98645 11.5905 7.92006 11.4757L7.39937 10.5738L7.92006 9.67185C7.98645 9.55704 7.98645 9.41557 7.92006 9.30076C7.85382 9.18595 7.73133 9.11521 7.59869 9.11521H6.55731L6.03647 8.21313C5.97022 8.09833 5.84773 8.02759 5.7151 8.02759C5.58261 8.02759 5.46012 8.09833 5.39372 8.21313L4.87303 9.11521H3.83151C3.69901 9.11521 3.57652 9.18595 3.51013 9.30076C3.44389 9.41557 3.44389 9.55704 3.51013 9.67185L4.03097 10.5738L3.51013 11.4757C3.44389 11.5905 3.44389 11.732 3.51013 11.8468ZM4.78084 10.3882L4.47425 9.8574H5.08728C5.21992 9.8574 5.34241 9.78666 5.40866 9.67185L5.71524 9.14087L6.02168 9.67185C6.08793 9.78666 6.21042 9.8574 6.34306 9.8574H6.95609L6.6495 10.3882C6.58325 10.503 6.58325 10.6445 6.6495 10.7593L6.95609 11.2902H6.34306C6.21042 11.2902 6.08793 11.3609 6.02168 11.4757L5.71524 12.0067L5.40866 11.4757C5.34241 11.3609 5.21992 11.2902 5.08728 11.2902H4.47425L4.78084 10.7593C4.84709 10.6445 4.84709 10.503 4.78084 10.3882Z" fill="white"/>
<path d="M12.3084 5.39629C12.3851 5.58328 12.6068 5.67432 12.793 5.59705C12.9797 5.5195 13.0712 5.29931 12.9938 5.11231C12.9165 4.92561 12.6958 4.83428 12.5092 4.91154C12.3226 4.98881 12.2307 5.20972 12.3084 5.39629Z" fill="white"/>
<path d="M1.15213 13.4534C1.33913 13.3768 1.43016 13.1549 1.3529 12.9688C1.27535 12.7821 1.05559 12.6907 0.868594 12.768C0.681453 12.8453 0.590274 13.0659 0.667827 13.2527C0.74509 13.439 0.965426 13.5312 1.15213 13.4534Z" fill="white"/>
</svg>
