<svg width="20" height="20" viewBox="0 0 20 20" fill="none" xmlns="http://www.w3.org/2000/svg">
<path d="M4.05977 17.7762C4.13242 17.8488 4.2332 17.8906 4.33594 17.8906C4.43867 17.8906 4.53945 17.8488 4.61211 17.7762C4.68477 17.7035 4.72656 17.6027 4.72656 17.5C4.72656 17.3973 4.68477 17.2965 4.61211 17.2238C4.53945 17.1512 4.43867 17.1094 4.33594 17.1094C4.2332 17.1094 4.13242 17.1512 4.05977 17.2238C3.98711 17.2965 3.94531 17.3973 3.94531 17.5C3.94531 17.6027 3.98711 17.7035 4.05977 17.7762Z" fill="white"/>
<path d="M12.8934 17.7762C12.966 17.7035 13.0078 17.6027 13.0078 17.5C13.0078 17.3973 12.966 17.2965 12.8934 17.2238C12.8207 17.1512 12.7199 17.1094 12.6172 17.1094C12.5145 17.1094 12.4137 17.1512 12.341 17.2238C12.2684 17.2965 12.2266 17.3973 12.2266 17.5C12.2266 17.6027 12.2684 17.7035 12.341 17.7762C12.4137 17.8488 12.5145 17.8906 12.6172 17.8906C12.7199 17.8906 12.8207 17.8488 12.8934 17.7762Z" fill="white"/>
<path d="M4.33594 2.89062C4.43867 2.89062 4.53945 2.84883 4.61211 2.77617C4.68477 2.70352 4.72656 2.60273 4.72656 2.5C4.72656 2.39727 4.68477 2.29648 4.61211 2.22383C4.53945 2.15117 4.43867 2.10938 4.33594 2.10938C4.2332 2.10938 4.13242 2.15117 4.05977 2.22383C3.98711 2.29648 3.94531 2.39727 3.94531 2.5C3.94531 2.60273 3.98711 2.70352 4.05977 2.77617C4.13242 2.84883 4.2332 2.89062 4.33594 2.89062Z" fill="white"/>
<path d="M12.8934 2.77617C12.966 2.70352 13.0078 2.60273 13.0078 2.5C13.0078 2.39727 12.966 2.29648 12.8934 2.22383C12.8207 2.15117 12.7199 2.10938 12.6172 2.10938C12.5145 2.10938 12.4137 2.15117 12.341 2.22383C12.2684 2.29648 12.2266 2.39727 12.2266 2.5C12.2266 2.60273 12.2684 2.70352 12.341 2.77617C12.4137 2.84883 12.5145 2.89062 12.6172 2.89062C12.7199 2.89062 12.8207 2.84883 12.8934 2.77617Z" fill="white"/>
<path d="M11.8359 5.85938C9.55277 5.85938 7.69531 7.71684 7.69531 10C7.69531 12.2832 9.55277 14.1406 11.8359 14.1406C14.1191 14.1406 15.9766 12.2832 15.9766 10C15.9766 7.71684 14.1191 5.85938 11.8359 5.85938ZM11.8359 13.3594C9.98359 13.3594 8.47656 11.8523 8.47656 10C8.47656 8.14766 9.98359 6.64062 11.8359 6.64062C13.6883 6.64062 15.1953 8.14766 15.1953 10C15.1953 11.8523 13.6883 13.3594 11.8359 13.3594Z" fill="white"/>
<path d="M18.1641 10C18.1641 7.71109 16.9425 5.70219 15.1172 4.59078V1.95312C15.1172 0.876172 14.241 0 13.1641 0H3.78906C2.71211 0 1.83594 0.876172 1.83594 1.95312V8.24219C1.83594 8.45793 2.01082 8.63281 2.22656 8.63281C2.4423 8.63281 2.61719 8.45793 2.61719 8.24219V1.95312C2.61719 1.30695 3.14289 0.78125 3.78906 0.78125H13.1641C13.8102 0.78125 14.3359 1.30695 14.3359 1.95312V4.18711C13.5686 3.85586 12.7234 3.67188 11.8359 3.67188C11.4937 3.67188 11.1544 3.70027 10.8203 3.7543V2.5C10.8203 2.28426 10.6454 2.10938 10.4297 2.10938H6.52344C6.3077 2.10938 6.13281 2.28426 6.13281 2.5V17.5C6.13281 17.7157 6.3077 17.8906 6.52344 17.8906H10.4297C10.6454 17.8906 10.8203 17.7157 10.8203 17.5V16.2457C11.1544 16.2998 11.4937 16.3281 11.8359 16.3281C12.7234 16.3281 13.5686 16.1441 14.3359 15.8129V18.0469C14.3359 18.693 13.8102 19.2188 13.1641 19.2188H3.78906C3.14289 19.2188 2.61719 18.693 2.61719 18.0469V11.7578C2.61719 11.5421 2.4423 11.3672 2.22656 11.3672C2.01082 11.3672 1.83594 11.5421 1.83594 11.7578V18.0469C1.83594 19.1238 2.71211 20 3.78906 20H13.1641C14.241 20 15.1172 19.1238 15.1172 18.0469V15.4092C16.9425 14.2978 18.1641 12.2889 18.1641 10ZM10.0391 2.89062V3.93184C9.48656 4.09516 8.95676 4.33355 8.46469 4.64398C7.87262 5.01746 7.34988 5.48465 6.91406 6.02367V2.89062H10.0391ZM10.0391 17.1094H6.91406V13.9763C7.34988 14.5154 7.87262 14.9826 8.46469 15.3561C8.95676 15.6664 9.48656 15.9048 10.0391 16.0682V17.1094ZM11.8359 15.5469C9.75199 15.5469 7.87445 14.4047 6.91406 12.5597V7.44027C7.87445 5.59531 9.75199 4.45312 11.8359 4.45312C14.8945 4.45312 17.3828 6.94145 17.3828 10C17.3828 13.0586 14.8945 15.5469 11.8359 15.5469Z" fill="white"/>
<path d="M2.22656 10.3906C2.3293 10.3906 2.43008 10.3488 2.50273 10.2762C2.57539 10.2035 2.61719 10.1027 2.61719 10C2.61719 9.89727 2.57539 9.79648 2.50273 9.72383C2.43008 9.65117 2.3293 9.60938 2.22656 9.60938C2.12383 9.60938 2.02305 9.65117 1.95039 9.72383C1.87773 9.79648 1.83594 9.89727 1.83594 10C1.83594 10.1027 1.87773 10.2035 1.95039 10.2762C2.02305 10.3488 2.12383 10.3906 2.22656 10.3906Z" fill="white"/>
</svg>
