<svg width="20" height="20" viewBox="0 0 20 20" fill="none" xmlns="http://www.w3.org/2000/svg">
<g clip-path="url(#clip0_53_279)">
<path d="M13.1314 10.2929C13.2936 10.2929 13.425 10.1614 13.425 9.99931V7.1811C13.425 6.3286 12.7314 5.63501 11.8789 5.63501H8.12129C7.26879 5.63501 6.5752 6.3286 6.5752 7.1811V18.454C6.5752 19.3065 7.26879 20 8.12129 20H11.8789C12.7314 20 13.425 19.3065 13.425 18.454V11.4475C13.425 11.2854 13.2936 11.154 13.1314 11.154C12.9693 11.154 12.8379 11.2854 12.8379 11.4475V18.454C12.8379 18.9827 12.4077 19.4129 11.8789 19.4129H8.12129C7.5925 19.4129 7.1623 18.9827 7.1623 18.454V7.1811C7.1623 6.65235 7.59246 6.22212 8.12129 6.22212H11.8789C12.4077 6.22212 12.8379 6.65231 12.8379 7.1811V9.99931C12.8379 10.1615 12.9693 10.2929 13.1314 10.2929Z" fill="white"/>
<path d="M9.99984 6.88745C8.97469 6.88745 8.14062 7.72151 8.14062 8.74667C8.14062 9.77183 8.97469 10.6059 9.99984 10.6059C11.025 10.6059 11.8591 9.77183 11.8591 8.74667C11.8591 7.72151 11.025 6.88745 9.99984 6.88745ZM9.99984 10.0188C9.2984 10.0188 8.72773 9.44808 8.72773 8.74667C8.72773 8.04526 9.2984 7.47456 9.99984 7.47456C10.7013 7.47456 11.272 8.04526 11.272 8.74667C11.272 9.44808 10.7013 10.0188 9.99984 10.0188Z" fill="white"/>
<path d="M9.99984 10.9583C8.97469 10.9583 8.14062 11.7923 8.14062 12.8175C8.14062 13.8426 8.97469 14.6767 9.99984 14.6767C11.025 14.6767 11.8591 13.8426 11.8591 12.8175C11.8591 11.7923 11.025 10.9583 9.99984 10.9583ZM9.99984 14.0896C9.2984 14.0896 8.72773 13.5189 8.72773 12.8175C8.72773 12.1161 9.2984 11.5454 9.99984 11.5454C10.7013 11.5454 11.272 12.1161 11.272 12.8175C11.272 13.5189 10.7013 14.0896 9.99984 14.0896Z" fill="white"/>
<path d="M9.99984 15.0289C8.97469 15.0289 8.14062 15.863 8.14062 16.8881C8.14062 17.9133 8.97469 18.7474 9.99984 18.7474C11.025 18.7474 11.8591 17.9133 11.8591 16.8881C11.8591 15.863 11.025 15.0289 9.99984 15.0289ZM9.99984 18.1603C9.2984 18.1603 8.72773 17.5896 8.72773 16.8881C8.72773 16.1867 9.2984 15.616 9.99984 15.616C10.7013 15.616 11.272 16.1867 11.272 16.8881C11.272 17.5896 10.7013 18.1603 9.99984 18.1603Z" fill="white"/>
<path d="M6.14724 12.9342L3.32904 9.8029C3.21412 9.67524 3.00748 9.67524 2.89259 9.8029L0.0743918 12.9342C-0.0924051 13.1196 0.0440402 13.4241 0.292595 13.4241H1.25158V17.2013C1.25158 17.3634 1.38299 17.4949 1.54513 17.4949H4.67646C4.83861 17.4949 4.97002 17.3634 4.97002 17.2013V13.4241H5.929C6.1776 13.4242 6.31408 13.1197 6.14724 12.9342ZM4.67646 12.837C4.51431 12.837 4.38291 12.9685 4.38291 13.1306V16.9078H1.83869V13.1306C1.83869 12.9685 1.70728 12.837 1.54513 12.837H0.951736L3.1108 10.4381L5.26986 12.837H4.67646Z" fill="white"/>
<path d="M4.67688 18.1603H1.54551C1.38336 18.1603 1.25195 18.2917 1.25195 18.4538C1.25195 18.6159 1.38336 18.7474 1.54551 18.7474H4.67684C4.83898 18.7474 4.97039 18.6159 4.97039 18.4538C4.97043 18.2917 4.83902 18.1603 4.67688 18.1603Z" fill="white"/>
<path d="M4.67688 19.4128H1.54551C1.38336 19.4128 1.25195 19.5443 1.25195 19.7064C1.25195 19.8685 1.38336 20 1.54551 20H4.67684C4.83898 20 4.97039 19.8685 4.97039 19.7064C4.97043 19.5443 4.83902 19.4128 4.67688 19.4128Z" fill="white"/>
<path d="M19.9256 3.22707L17.1074 0.0957422C16.9924 -0.0319141 16.7858 -0.0319141 16.6709 0.0957422L13.8527 3.22707C13.6859 3.41246 13.8224 3.71699 14.0709 3.71699H15.0299V17.2013C15.0299 17.3634 15.1613 17.4949 15.3235 17.4949H18.4548C18.6169 17.4949 18.7483 17.3634 18.7483 17.2013V3.71699H19.7073C19.9559 3.71699 20.0924 3.4125 19.9256 3.22707ZM18.4548 3.12988C18.2926 3.12988 18.1612 3.26133 18.1612 3.42344V16.9078H15.617V3.42344C15.617 3.26133 15.4856 3.12988 15.3235 3.12988H14.7301L16.8891 0.730937L19.0482 3.12988H18.4548Z" fill="white"/>
<path d="M18.4547 18.1603H15.3233C15.1612 18.1603 15.0298 18.2917 15.0298 18.4538C15.0298 18.6159 15.1612 18.7474 15.3233 18.7474H18.4547C18.6168 18.7474 18.7482 18.6159 18.7482 18.4538C18.7482 18.2917 18.6169 18.1603 18.4547 18.1603Z" fill="white"/>
<path d="M18.4547 19.4128H15.3233C15.1612 19.4128 15.0298 19.5443 15.0298 19.7064C15.0298 19.8685 15.1612 20 15.3233 20H18.4547C18.6168 20 18.7482 19.8685 18.7482 19.7064C18.7482 19.5443 18.6169 19.4128 18.4547 19.4128Z" fill="white"/>
</g>
<defs>
<clipPath id="clip0_53_279">
<rect width="20" height="20" fill="white"/>
</clipPath>
</defs>
</svg>
