<svg width="20" height="20" viewBox="0 0 20 20" fill="none" xmlns="http://www.w3.org/2000/svg">
<g clip-path="url(#clip0_53_320)">
<path d="M1.53955 15.6287C1.37766 15.6287 1.24658 15.7597 1.24658 15.9216V16.425C1.24658 16.5868 1.37766 16.718 1.53955 16.718C1.70129 16.718 1.83252 16.5868 1.83252 16.425V15.9216C1.83252 15.7597 1.70129 15.6287 1.53955 15.6287Z" fill="white"/>
<path d="M7.10254 15.6287C6.9408 15.6287 6.80957 15.7597 6.80957 15.9216V16.425C6.80957 16.5868 6.9408 16.718 7.10254 16.718C7.26443 16.718 7.39551 16.5868 7.39551 16.425V15.9216C7.39551 15.7597 7.26443 15.6287 7.10254 15.6287Z" fill="white"/>
<path d="M5.20053 16.1694C5.07876 16.0629 4.89367 16.0752 4.78716 16.1971C4.6741 16.3265 4.50427 16.4007 4.32116 16.4007C4.13821 16.4007 3.96838 16.3265 3.85531 16.1971C3.7488 16.0752 3.56371 16.0629 3.44195 16.1694C3.32018 16.2759 3.30767 16.461 3.41418 16.5827C3.63864 16.8394 3.96914 16.9866 4.32116 16.9866C4.67333 16.9866 5.00399 16.8394 5.2283 16.5827C5.3348 16.4608 5.32229 16.2757 5.20053 16.1694Z" fill="white"/>
<path d="M18.4604 13.2849C18.2987 13.2849 18.1675 13.416 18.1675 13.5779V14.0813C18.1675 14.243 18.2987 14.3742 18.4604 14.3742C18.6222 14.3742 18.7534 14.243 18.7534 14.0813V13.5779C18.7534 13.416 18.6222 13.2849 18.4604 13.2849Z" fill="white"/>
<path d="M12.8975 13.2849C12.7356 13.2849 12.6045 13.416 12.6045 13.5779V14.0813C12.6045 14.243 12.7356 14.3742 12.8975 14.3742C13.0592 14.3742 13.1904 14.243 13.1904 14.0813V13.5779C13.1904 13.416 13.0592 13.2849 12.8975 13.2849Z" fill="white"/>
<path d="M16.558 13.8256C16.4361 13.7191 16.251 13.7315 16.1446 13.8533C16.0314 13.9827 15.8617 14.0568 15.6786 14.0568C15.4957 14.0568 15.3259 13.9827 15.2128 13.8533C15.1063 13.7315 14.9212 13.7191 14.7994 13.8255C14.6775 13.932 14.6651 14.1171 14.7717 14.239C14.996 14.4957 15.3266 14.6428 15.6786 14.6428C16.0307 14.6428 16.3613 14.4957 16.5856 14.239C16.6923 14.1171 16.6798 13.932 16.558 13.8256Z" fill="white"/>
<path d="M10.4285 1.56958C9.51999 1.56958 8.68396 2.02643 8.19217 2.7915C8.14883 2.85895 8.06155 2.8858 7.98022 2.85666C7.72739 2.76602 7.46204 2.72009 7.19135 2.72009C6.2952 2.72009 5.46664 3.24316 5.08075 4.05295C5.04932 4.11887 4.9834 4.16037 4.90649 4.15976C3.61743 4.15976 2.56885 5.20834 2.56885 6.49741C2.56885 7.55515 3.45569 8.42535 4.50916 8.42535H12.8475C14.1367 8.42535 15.199 7.39066 15.2155 6.11868C15.2237 5.48819 14.9845 4.89401 14.5418 4.44556C14.1379 4.03647 13.6109 3.79492 13.0431 3.75571C12.8189 2.49808 11.7232 1.56958 10.4285 1.56958ZM14.6295 6.11105C14.6172 7.06412 13.8178 7.83942 12.8475 7.83942C12.8475 7.83942 4.5145 7.83942 4.50916 7.83942C3.78085 7.83942 3.15463 7.22708 3.15463 6.49741C3.15463 5.53152 3.94046 4.7457 4.90924 4.7457H4.91061C5.21228 4.7457 5.47992 4.57693 5.60962 4.30502C5.89893 3.69818 6.51981 3.30603 7.19135 3.30603C7.39444 3.30603 7.59326 3.34036 7.78247 3.40811C8.12213 3.52988 8.49323 3.40659 8.68503 3.10828C9.06848 2.51166 9.72034 2.15552 10.4285 2.15552C11.4815 2.15552 12.3656 2.94333 12.4851 3.98825C12.5078 4.18646 12.6763 4.336 12.878 4.336C13.3503 4.336 13.7929 4.52094 14.1248 4.85709C14.4565 5.19324 14.6358 5.63849 14.6295 6.11105Z" fill="white"/>
<path d="M0 19.707C0 19.8687 0.131226 20 0.292969 20H19.707C19.8669 20 20 19.8669 20 19.707V8.07156C20 7.90982 19.8688 7.77859 19.707 7.77859C19.5453 7.77859 19.4141 7.90982 19.4141 8.07156V9.41922H11.2692C10.9727 9.41922 10.7176 9.60019 10.6087 9.8573C10.5252 10.0544 10.5469 10.2784 10.5865 10.4832C10.5869 10.4849 10.587 10.4869 10.5875 10.4886C10.6264 10.6839 10.6975 10.8693 10.7964 11.0385V19.414H9.20364V13.3822C9.30252 13.2132 9.37363 13.0278 9.41254 12.8326C9.43573 12.7163 9.44778 12.5984 9.44778 12.48C9.44778 12.0846 9.12613 11.763 8.73077 11.763H0.585938V4.09863C0.585938 3.93674 0.454864 3.80566 0.292969 3.80566C0.131226 3.80566 0 3.93674 0 4.09863L0 19.707ZM19.3962 11.2797C19.055 11.4079 18.663 11.3899 18.3289 11.2483C18.1477 11.1715 17.9796 11.0832 17.7869 11.0347C17.3082 10.9144 16.7876 10.975 16.3495 11.2025C15.9337 11.4186 15.4243 11.4187 15.0084 11.2025C14.4194 10.8966 13.7161 10.8966 13.127 11.2025C12.691 11.4291 12.1393 11.419 11.7171 11.1638C11.398 10.9707 11.1823 10.6282 11.1446 10.2574C11.1345 10.1584 11.133 10.0052 11.2692 10.0052H19.4141V11.2729C19.4136 11.273 19.4131 11.2733 19.4127 11.2735C19.4072 11.2756 19.4017 11.2777 19.3962 11.2797ZM19.4141 19.414H11.3823V11.6456C11.5378 11.7448 11.7097 11.819 11.8866 11.8704C12.3856 12.0155 12.9358 11.9622 13.3972 11.7225C13.8104 11.5078 14.325 11.508 14.7383 11.7225C15.3201 12.0248 16.0379 12.0248 16.6197 11.7225C17.0355 11.5065 17.545 11.5063 17.9608 11.7225C18.3969 11.9493 18.9182 12.0099 19.395 11.8911C19.4014 11.8896 19.4078 11.8884 19.4141 11.8867V19.414ZM1.69434 13.5826C1.34399 13.7402 0.947113 13.7457 0.587463 13.6174C0.587006 13.6171 0.586395 13.6169 0.585938 13.6166V12.3489H8.73077C8.80295 12.3489 8.86185 12.4077 8.86185 12.48C8.86185 12.4815 8.86169 12.4832 8.86169 12.4847C8.85635 12.9252 8.60687 13.3424 8.21411 13.5463C7.79419 13.7645 7.29294 13.7645 6.87302 13.5463C6.28387 13.2403 5.5806 13.2403 4.99161 13.5463C4.57169 13.7645 4.07043 13.7645 3.65051 13.5463C3.00446 13.2107 2.33658 13.2936 1.69434 13.5826ZM0.585938 14.2305C1.06949 14.3544 1.59592 14.2965 2.03918 14.0663C2.45392 13.851 2.9657 13.851 3.38043 14.0663C3.96133 14.368 4.67728 14.3699 5.26169 14.0663C5.62134 13.8795 6.05148 13.8522 6.43188 13.9914C6.76361 14.1125 7.07016 14.2723 7.42966 14.2924C7.84271 14.3155 8.26767 14.2119 8.61771 13.9894V19.414H0.585938V14.2305Z" fill="white"/>
<path d="M0.292969 3.21976C0.454864 3.21976 0.585938 3.08853 0.585938 2.92679V0.585938H19.4141V6.89972C19.4141 7.06146 19.5453 7.19269 19.707 7.19269C19.8688 7.19269 20 7.06146 20 6.89972V0.292969C20 0.131226 19.8688 0 19.707 0H0.292969C0.131226 0 0 0.131226 0 0.292969V2.92679C0 3.08853 0.131226 3.21976 0.292969 3.21976Z" fill="white"/>
</g>
<defs>
<clipPath id="clip0_53_320">
<rect width="20" height="20" fill="white"/>
</clipPath>
</defs>
</svg>
