<svg width="20" height="21" viewBox="0 0 20 21" fill="none" xmlns="http://www.w3.org/2000/svg">
<g clip-path="url(#clip0_36_8)">
<path d="M5.91696 10.8751C5.68719 11.1047 5.68719 11.4772 5.91696 11.7069L9.57352 15.3634C9.68825 15.4783 9.839 15.5358 9.98943 15.5358C10.1399 15.5358 10.2906 15.4783 10.4055 15.3634L14.062 11.7069C14.2909 11.4779 14.2918 11.1067 14.0636 10.8768C13.8353 10.6465 13.4682 10.6444 13.2375 10.8715L10.5855 13.4835V1.08768C10.5855 0.76278 10.3148 0.499451 9.99008 0.499451C9.66518 0.499451 9.39466 0.76278 9.39466 1.08768V13.5273L6.7455 10.8751C6.51573 10.6453 6.14673 10.6453 5.91696 10.8751Z" fill="white"/>
<path d="M12.6515 3.56258C12.3415 3.46331 12.0109 3.63412 11.912 3.94309C11.8127 4.25253 11.983 4.58372 12.2925 4.68299C15.4061 5.68161 17.4984 8.55156 17.4984 11.8245C17.4984 15.9592 14.1347 19.323 9.9999 19.323C5.86525 19.323 2.50143 15.9592 2.50143 11.8245C2.50143 8.55156 4.5935 5.68163 7.70732 4.68299C8.01661 4.58372 8.18695 4.25253 8.08784 3.94309C7.98842 3.63381 7.65678 3.46346 7.34795 3.56258C3.74546 4.71805 1.32495 8.03822 1.32495 11.8245C1.32495 16.6079 5.2165 20.4995 9.9999 20.4995C14.7833 20.4995 18.6749 16.6079 18.6749 11.8245C18.6748 8.03822 16.2542 4.71805 12.6515 3.56258Z" fill="white"/>
</g>
<defs>
<clipPath id="clip0_36_8">
<rect width="20" height="20" fill="white" transform="translate(0 0.499451)"/>
</clipPath>
</defs>
</svg>
