<svg width="15" height="13" viewBox="0 0 15 13" fill="none" xmlns="http://www.w3.org/2000/svg">
<path d="M13.68 6.88H0.62C0.46 6.88 0.316667 6.82333 0.19 6.71C0.0633333 6.59667 0 6.44667 0 6.26C0 6.07333 0.0566667 5.92333 0.17 5.81C0.283333 5.69667 0.433333 5.64 0.62 5.64H13.68C13.8533 5.64 14.0033 5.69667 14.13 5.81C14.2567 5.92333 14.32 6.07333 14.32 6.26C14.32 6.44667 14.2567 6.59667 14.13 6.71C14.0033 6.82333 13.8533 6.88 13.68 6.88ZM8.76 12.5C8.58667 12.5 8.43667 12.44 8.31 12.32C8.18333 12.2 8.12 12.0567 8.12 11.89C8.12 11.7233 8.18667 11.5733 8.32 11.44L13.5 6.26L8.32 1.08C8.18667 0.946667 8.12 0.796667 8.12 0.63C8.12 0.463334 8.18333 0.316667 8.31 0.190001C8.43667 0.0633335 8.58333 0 8.75 0C8.91667 0 9.06 0.0666666 9.18 0.2L14.82 5.82C14.94 5.95333 15 6.1 15 6.26C15 6.42 14.94 6.56667 14.82 6.7L9.18 12.32C9.06 12.44 8.92 12.5 8.76 12.5Z" fill="white"/>
</svg>
