<svg width="15" height="13" viewBox="0 0 15 13" fill="none" xmlns="http://www.w3.org/2000/svg">
<path d="M1.32 6.12L14.38 6.12C14.54 6.12 14.6833 6.17667 14.81 6.29C14.9367 6.40333 15 6.55333 15 6.74C15 6.92667 14.9433 7.07667 14.83 7.19C14.7167 7.30333 14.5667 7.36 14.38 7.36L1.32 7.36C1.14667 7.36 0.996666 7.30333 0.869999 7.19C0.743333 7.07667 0.68 6.92667 0.68 6.74C0.68 6.55333 0.743333 6.40333 0.869999 6.29C0.996666 6.17667 1.14667 6.12 1.32 6.12ZM6.24 0.499999C6.41333 0.499999 6.56333 0.559999 6.69 0.679999C6.81667 0.799999 6.88 0.943333 6.88 1.11C6.88 1.27667 6.81333 1.42667 6.68 1.56L1.5 6.74L6.68 11.92C6.81333 12.0533 6.88 12.2033 6.88 12.37C6.88 12.5367 6.81667 12.6833 6.69 12.81C6.56333 12.9367 6.41667 13 6.25 13C6.08333 13 5.94 12.9333 5.82 12.8L0.18 7.18C0.0599998 7.04667 -5.59506e-07 6.9 -5.45518e-07 6.74C-5.3153e-07 6.58 0.0599999 6.43333 0.18 6.3L5.82 0.679999C5.94 0.559999 6.08 0.499999 6.24 0.499999Z" fill="white"/>
</svg>
